# xmcd
#
# Track frame offsets:
#	150
#	13493
#	38668
#	58657
#	73757
#	87782
#	105902
#	119462
#	138026
#	155896
#	172854
#	220321
#
# Disc length: 3203 seconds
#
# Revision: 2
# Processed by: cddbd v1.5.2PL0 Copyright (c) Steve Scherf et al.
# Submitted via: audiograbber 1.83.01
#
DISCID=a10c810c
DTITLE=Doug Adkins - One More Mile To Go
DYEAR=2006
DGENRE=Country
TTITLE0=Tutti Fruitti
TTITLE1=At 95
TTITLE2=Confederately Yours
TTITLE3=Gotta Be Strong
TTITLE4=Window Shoppin´
TTITLE5=Aspen
TTITLE6=One More Mile To Go
TTITLE7=Honky Tonk Guitar Boogie Man
TTITLE8=About Us
TTITLE9=Whiskey Salesman
TTITLE10=Johnny Cash Medley
TTITLE11=To The Radio
EXTD=
EXTT0=
EXTT1=
EXTT2=
EXTT3=
EXTT4=
EXTT5=
EXTT6=
EXTT7=
EXTT8=
EXTT9=
EXTT10=
EXTT11=
PLAYORDER=
